<svg xmlns="http://www.w3.org/2000/svg" width="800" height="400" viewBox="0 0 800 400" role="img" aria-label="ConfigForge architecture diagram">
  <defs>
    <linearGradient id="bg" x1="0" y1="0" x2="0" y2="1">
      <stop offset="0%" stop-color="#0f172a"/>
      <stop offset="100%" stop-color="#1e293b"/>
    </linearGradient>
    <linearGradient id="src1" x1="0" y1="0" x2="1" y2="1">
      <stop offset="0%" stop-color="#38bdf8"/>
      <stop offset="100%" stop-color="#7c3aed"/>
    </linearGradient>
    <linearGradient id="src2" x1="0" y1="0" x2="1" y2="1">
      <stop offset="0%" stop-color="#38bdf8"/>
      <stop offset="100%" stop-color="#6366f1"/>
    </linearGradient>
    <linearGradient id="src3" x1="0" y1="0" x2="1" y2="1">
      <stop offset="0%" stop-color="#6366f1"/>
      <stop offset="100%" stop-color="#38bdf8"/>
    </linearGradient>
    <linearGradient id="src4" x1="0" y1="0" x2="1" y2="1">
      <stop offset="0%" stop-color="#fbbf24"/>
      <stop offset="100%" stop-color="#f59e0b"/>
    </linearGradient>
    <linearGradient id="forge" x1="0" y1="0" x2="1" y2="0">
      <stop offset="0%" stop-color="#38bdf8"/>
      <stop offset="50%" stop-color="#6366f1"/>
      <stop offset="100%" stop-color="#38bdf8"/>
    </linearGradient>
    <linearGradient id="err" x1="0" y1="0" x2="1" y2="0">
      <stop offset="0%" stop-color="#ef4444"/>
      <stop offset="100%" stop-color="#dc2626"/>
    </linearGradient>
    <linearGradient id="out" x1="0" y1="0" x2="1" y2="0">
      <stop offset="0%" stop-color="#22c55e"/>
      <stop offset="100%" stop-color="#16a34a"/>
    </linearGradient>
    <filter id="shadow">
      <feDropShadow dx="0" dy="2" stdDeviation="3" flood-color="#000" flood-opacity="0.3"/>
    </filter>
  </defs>

  <rect width="800" height="400" rx="16" fill="url(#bg)"/>

  <!-- Title -->
  <text x="400" y="36" text-anchor="middle" font-family="system-ui, sans-serif" font-size="18" font-weight="700" fill="#e2e8f0" letter-spacing="1">ARCHITECTURE</text>

  <!-- Source boxes (left side) - Increased spacing -->
  <g filter="url(#shadow)">
    <!-- Layer (dict) -->
    <rect x="30" y="70" width="150" height="50" rx="8" fill="url(#src1)" opacity="0.9"/>
    <text x="105" y="93" text-anchor="middle" font-family="system-ui, sans-serif" font-size="12" font-weight="600" fill="#fff">Layer (dict)</text>
    <text x="105" y="110" text-anchor="middle" font-family="system-ui, sans-serif" font-size="9" fill="rgba(255,255,255,0.8)">Python object / JSON</text>

    <!-- Layer (JSON file) -->
    <rect x="30" y="130" width="150" height="50" rx="8" fill="url(#src2)" opacity="0.9"/>
    <text x="105" y="153" text-anchor="middle" font-family="system-ui, sans-serif" font-size="12" font-weight="600" fill="#fff">Layer (JSON file)</text>
    <text x="105" y="170" text-anchor="middle" font-family="system-ui, sans-serif" font-size="9" fill="rgba(255,255,255,0.8)">base.json / override.json</text>

    <!-- Env vars -->
    <rect x="30" y="190" width="150" height="50" rx="8" fill="url(#src3)" opacity="0.9"/>
    <text x="105" y="213" text-anchor="middle" font-family="system-ui, sans-serif" font-size="12" font-weight="600" fill="#fff">Env vars (APP__*)</text>
    <text x="105" y="230" text-anchor="middle" font-family="system-ui, sans-serif" font-size="9" fill="rgba(255,255,255,0.8)">APP__DB__HOST → DB.HOST</text>

    <!-- Secrets -->
    <rect x="30" y="250" width="150" height="50" rx="8" fill="url(#src4)" opacity="0.9"/>
    <text x="105" y="273" text-anchor="middle" font-family="system-ui, sans-serif" font-size="12" font-weight="600" fill="#fff">Secrets (Fernet)</text>
    <text x="105" y="290" text-anchor="middle" font-family="system-ui, sans-serif" font-size="9" fill="rgba(255,255,255,0.8)">Decrypted token</text>
  </g>

  <!-- Arrows from sources to forge - Adjusted positions -->
  <line x1="180" y1="95" x2="260" y2="155" stroke="#38bdf8" stroke-width="2" opacity="0.6"/>
  <polygon points="258,153 264,155 256,158" fill="#38bdf8" opacity="0.6"/>

  <line x1="180" y1="155" x2="260" y2="160" stroke="#38bdf8" stroke-width="2" opacity="0.6"/>
  <polygon points="258,159 264,160 256,163" fill="#38bdf8" opacity="0.6"/>

  <line x1="180" y1="215" x2="260" y2="165" stroke="#38bdf8" stroke-width="2" opacity="0.6"/>
  <polygon points="258,166 264,165 256,162" fill="#38bdf8" opacity="0.6"/>

  <line x1="180" y1="275" x2="260" y2="170" stroke="#fbbf24" stroke-width="2" opacity="0.6"/>
  <polygon points="258,171 264,170 256,167" fill="#fbbf24" opacity="0.6"/>

  <!-- Forge box (center) - Larger and centered -->
  <g filter="url(#shadow)">
    <rect x="260" y="130" width="180" height="100" rx="12" fill="url(#forge)" opacity="0.95"/>
    <text x="350" y="170" text-anchor="middle" font-family="system-ui, sans-serif" font-size="16" font-weight="700" fill="#fff">forge()</text>
    <text x="350" y="195" text-anchor="middle" font-family="system-ui, sans-serif" font-size="10" fill="rgba(255,255,255,0.85)">Deep merge</text>
    <text x="350" y="210" text-anchor="middle" font-family="system-ui, sans-serif" font-size="10" fill="rgba(255,255,255,0.85)">Conflict detection</text>
  </g>

  <!-- Arrow from forge to validate -->
  <line x1="440" y1="180" x2="520" y2="180" stroke="#38bdf8" stroke-width="3"/>
  <polygon points="518,175 528,180 518,185" fill="#38bdf8"/>

  <!-- Schema input arrow -->
  <line x1="350" y1="230" x2="350" y2="260" stroke="#94a3b8" stroke-width="1.5" stroke-dasharray="4,3"/>
  <polygon points="347,258 350,265 353,258" fill="#94a3b8"/>
  <text x="370" y="270" font-family="system-ui, sans-serif" font-size="10" fill="#94a3b8">schema</text>

  <!-- Validate box -->
  <g filter="url(#shadow)">
    <rect x="520" y="150" width="140" height="80" rx="12" fill="#334155"/>
    <text x="590" y="185" text-anchor="middle" font-family="system-ui, sans-serif" font-size="14" font-weight="700" fill="#38bdf8">Validate</text>
    <text x="590" y="205" text-anchor="middle" font-family="system-ui, sans-serif" font-size="10" fill="#94a3b8">type · required · default</text>
    <text x="590" y="220" text-anchor="middle" font-family="system-ui, sans-serif" font-size="10" fill="#94a3b8">min/max · pattern</text>
  </g>

  <!-- Arrow from validate to Config -->
  <line x1="660" y1="190" x2="720" y2="190" stroke="#22c55e" stroke-width="3"/>
  <polygon points="718,185 728,190 718,195" fill="#22c55e"/>

  <!-- Config output box -->
  <g filter="url(#shadow)">
    <rect x="720" y="160" width="80" height="60" rx="10" fill="url(#out)"/>
    <text x="760" y="192" text-anchor="middle" font-family="system-ui, sans-serif" font-size="14" font-weight="700" fill="#fff">Config</text>
    <text x="760" y="210" text-anchor="middle" font-family="system-ui, sans-serif" font-size="9" fill="rgba(255,255,255,0.85)">dict / JSON</text>
  </g>

  <!-- Bottom error branch -->
  <path d="M350 230 L350 310 Q350 320 360 320 L530 320 Q540 320 540 310 L540 300" fill="none" stroke="#ef4444" stroke-width="2" stroke-dasharray="5,3"/>
  <polygon points="537,302 540,295 543,302" fill="#ef4444"/>

  <g filter="url(#shadow)">
    <rect x="450" y="310" width="180" height="50" rx="8" fill="url(#err)" opacity="0.9"/>
    <text x="540" y="333" text-anchor="middle" font-family="system-ui, sans-serif" font-size="12" font-weight="600" fill="#fff">MergeConflictError</text>
    <text x="540" y="350" text-anchor="middle" font-family="system-ui, sans-serif" font-size="9" fill="rgba(255,255,255,0.85)">Scalar clash detection</text>
  </g>

  <!-- Legend -->
  <g transform="translate(30, 340)">
    <text x="0" y="10" font-family="system-ui, sans-serif" font-size="10" fill="#94a3b8">— Input sources →</text>
    <rect x="120" y="0" width="12" height="12" rx="3" fill="url(#src1)"/>
    <text x="136" y="10" font-family="system-ui, sans-serif" font-size="9" fill="#cbd5e1">Layer</text>
    <rect x="180" y="0" width="12" height="12" rx="3" fill="url(#src4)"/>
    <text x="196" y="10" font-family="system-ui, sans-serif" font-size="9" fill="#cbd5e1">Secrets</text>
    <rect x="250" y="0" width="12" height="12" rx="3" fill="#334155"/>
    <text x="266" y="10" font-family="system-ui, sans-serif" font-size="9" fill="#cbd5e1">Validate</text>
    <rect x="320" y="0" width="12" height="12" rx="3" fill="url(#out)"/>
    <text x="336" y="10" font-family="system-ui, sans-serif" font-size="9" fill="#cbd5e1">Config</text>
    <rect x="386" y="0" width="12" height="12" rx="3" fill="url(#err)"/>
    <text x="402" y="10" font-family="system-ui, sans-serif" font-size="9" fill="#cbd5e1">Error</text>
  </g>
</svg>
